PathFileType	4	(X/Y/Z)	Patient4_TMGait_0pt5_01_left_03.trc.trc
DataRate	CameraRate	NumFrames	NumMarkers	Units	OrigDataRate	OrigDataStartFrame	OrigNumFrames
71.794871794872	71.794871794872	4	33	mm	71.794871794872	106	       141
Frame#	Time	L.ASIS			Sacral			L.Shoulder			Chest			R.Shoulder			Neck			R.ASIS			R.Thigh.Superior			R.Thigh.Lateral			R.Thigh.Inferior			R.Patella			L.Thigh.Superior			L.Thigh.Lateral			L.Thigh.Inferior			L.Patella			L.Shank.Superior			L.Shank.Lateral			L.Shank.Inferior			R.Shank.Superior			R.Shank.Lateral			R.Shank.Inferior			R.Heel			R.Midfoot.Superior			R.Midfoot.Lateral			R.Toe			L.Heel			L.Midfoot.Lateral			L.Midfoot.Superior			L.Toe			L.Elbow			L.Wrist			R.Elbow			R.Wrist			
		X1	Y1	Z1	X2	Y2	Z2	X3	Y3	Z3	X4	Y4	Z4	X5	Y5	Z5	X6	Y6	Z6	X7	Y7	Z7	X8	Y8	Z8	X9	Y9	Z9	X10	Y10	Z10	X11	Y11	Z11	X12	Y12	Z12	X13	Y13	Z13	X14	Y14	Z14	X15	Y15	Z15	X16	Y16	Z16	X17	Y17	Z17	X18	Y18	Z18	X19	Y19	Z19	X20	Y20	Z20	X21	Y21	Z21	X22	Y22	Z22	X23	Y23	Z23	X24	Y24	Z24	X25	Y25	Z25	X26	Y26	Z26	X27	Y27	Z27	X28	Y28	Z28	X29	Y29	Z29	X30	Y30	Z30	X31	Y31	Z31	X32	Y32	Z32	X33	Y33	Z33	

106	5.282500000000	715.974858706091	967.012444274589	372.347362280309	513.561844450123	1008.988206664751	545.213217053702	669.927017473897	1433.416842237843	344.924381113643	785.147181706916	1367.437100623068	499.373571486393	714.920061670075	1446.208303286886	678.245247568241	683.731564065524	1498.630436453747	493.974963847146	750.994574341732	943.159373504363	644.743109021350	782.829665924791	739.146962804648	613.213157041886	697.297283699764	633.495644186228	672.116504682487	768.483594022219	578.849224593799	588.646740945681	763.887477676561	491.397066467945	590.953764961455	805.373792511071	790.472190807982	397.760389780435	761.167264256660	662.599975409712	323.092329905501	869.084314089621	604.010502005180	377.264091972536	886.576061625706	516.025424913785	371.055340464575	829.573439063612	443.314230241191	364.204153287528	696.663572783245	380.525056454288	315.007677716366	705.721708426979	249.928804709800	368.360227655435	735.617603662711	403.746437323626	596.859793793213	664.513078326875	299.816527414885	656.703909198054	702.781252422056	206.116719574931	590.359097784202	564.197000248418	43.262847416884	557.448443898427	736.097311958125	96.982150456749	594.064747872242	647.111682094113	36.283824142815	632.615368122490	855.573154441661	42.498686163762	622.585522040481	527.586180154141	160.153434062902	405.572973863024	589.457824483822	120.659824860307	325.742710905148	692.341118173495	142.174732391939	345.631151013835	782.711384462017	39.527052148991	320.085136429511	616.805955435482	1075.493400173927	247.777658095641	657.704337132050	819.786400741045	234.068029431630	748.934644669800	1117.000577986775	827.345050073079	986.904614240285	1025.463937014834	798.499394276159	
107	5.296428571429	713.689794079981	968.153270221271	372.962226652135	512.513529072674	1010.149444170722	547.105692793181	668.778591633078	1434.144948843317	346.502543564178	785.187443705289	1367.435103518277	499.745366818344	717.242826573385	1446.524865297972	679.359475235065	684.232730488020	1499.081717143422	495.478751012112	749.935037420996	943.023421441965	645.142324723033	779.015159240362	738.367935929758	612.956096322237	692.723414131715	633.570289903172	672.544685951673	762.577480071392	578.201507055168	588.635743467514	757.130733009379	491.190878112138	591.026560077946	803.607598018867	792.762777266703	398.303801240168	759.759248080277	664.503871874617	323.586246148933	867.656418748798	606.398142690359	377.762330982917	886.688441312790	520.379454494136	371.863675707213	834.353551843112	446.303860008955	364.607042711675	707.390922412714	374.228122906035	314.278869628523	725.954442440830	244.624307151693	367.698573149345	728.844079711659	403.675634267166	596.947155667808	657.630409929036	299.818845409188	656.833582405205	695.876763303518	206.135867194219	590.415311830792	557.120195255716	43.192937242064	557.439424899358	729.047288480882	96.966222772438	594.070988666540	640.031170003658	36.263676145265	632.635678782767	848.480465218674	42.555959883730	622.614959104961	555.610487943537	140.663476512462	403.651180302157	620.889264553674	107.268715760175	323.984451084371	721.272190744754	136.911974044880	344.671437230998	819.634788137899	42.988916998640	319.175526869929	607.446680674035	1077.370743820700	250.424747119611	642.521758036031	820.831134763095	237.141110558893	760.506140750575	1118.792371028105	828.056211851676	1001.995321678918	1040.228717651011	794.697147601420	
108	5.310357142857	711.566288958136	969.121610828191	373.431543260029	511.629569067364	1011.154043086806	548.885227718850	667.710235150556	1434.742411234891	347.983464437792	785.235932090895	1367.318740770908	500.062634349487	719.452878247639	1446.692169669759	680.354824536748	684.684168968112	1499.399736659240	496.886364331360	748.963326736858	942.750244146088	645.405110017923	775.335558049935	737.554594769612	612.512133119460	688.398934198991	633.578382234757	672.894882570930	756.875001486036	577.534728092907	588.511749871981	750.611984806469	490.927113340733	591.049669771497	801.355457766909	794.111526625410	398.788846288821	757.516568891740	665.731548267208	323.885396374894	864.774562719356	607.537815643093	378.624684979717	885.170831502815	523.908688902202	373.008023002031	837.921432426543	448.926740680769	365.114142710956	718.229454353837	367.318017412263	313.289196577992	746.757362291621	239.584647173568	366.991511643817	722.253439978354	403.532343795178	596.977749989145	650.894384217998	299.780385678264	656.916266222032	689.039478124808	206.086018316564	590.420716971617	550.045157285238	43.113614257241	557.414497084656	721.981810678348	96.933178412976	594.046453600901	632.952721704734	36.235397139153	632.632698687551	841.391593092969	42.601026769258	622.632119420112	585.807319499354	121.319947623897	401.296985832564	654.404219293086	94.410122062852	322.096230815645	751.447707057496	132.410031544851	343.816923168870	857.606728314825	48.178347073755	318.932819586091	598.343728023492	1079.299934037897	252.931868636613	628.108546985553	822.105106762725	240.039679327214	771.839858386890	1120.598180778953	828.305181933775	1016.012249193753	1054.903846482137	790.350642014048	
109	5.324285714286	709.603829404578	969.863336607975	373.749978454087	510.912200963075	1011.956636460754	550.554415745730	666.715214648422	1435.188219104737	349.352070489299	785.277339910468	1367.076757852478	500.320304508187	721.503500069679	1446.689595996597	681.224444001267	685.077714857010	1499.566138678444	498.182750443965	748.107313549045	942.344173805031	645.521940306859	771.875032561401	736.716462924907	611.923151568045	684.403170414376	633.506985094011	673.174960851474	751.484548005826	576.846170024946	588.297468542767	744.432197264453	490.589035919998	591.033333599734	798.638489299900	794.481999969548	399.224790870959	754.533692956831	666.280021093864	323.965414983299	860.578362842690	607.474561424010	379.843302785555	882.193773486484	526.612445824301	374.454398539641	840.311980626134	451.239236963849	365.691166838865	729.065155271364	360.207577403696	312.129870444638	767.736652982557	235.270926967577	366.311628784674	715.933968430886	403.301605762036	596.959860546115	644.374564405751	299.699564811737	656.961470173440	682.305071698167	205.959978475594	590.381548306235	542.977356072292	43.035606731297	557.382891301663	714.908071751582	96.883532757110	593.997773714020	625.882467872248	36.201293813675	632.608394966917	834.314376410177	42.622387141798	622.640676690685	617.656635398878	103.088552247687	398.756131031802	689.319324923141	82.876108400007	320.272038413822	782.209094432312	129.196061931252	343.154188767130	895.649057277486	55.346543190944	319.375202000410	589.662641346145	1081.206575275831	255.303395738223	614.504518274793	823.497180286515	242.721064823153	782.877859126081	1122.383059515841	828.098420010285	1028.935063233904	1069.354022118488	785.507119773814	
